<?xml version="1.0" standalone="no"?>
<!DOCTYPE svg PUBLIC "-//W3C//DTD SVG 20010904//EN"
 "http://www.w3.org/TR/2001/REC-SVG-20010904/DTD/svg10.dtd">
<svg version="1.0" xmlns="http://www.w3.org/2000/svg"
 width="480.000000pt" height="360.000000pt" viewBox="0 0 480.000000 360.000000"
 preserveAspectRatio="xMidYMid meet">

<g transform="translate(0.000000,360.000000) scale(0.100000,-0.100000)"
fill="#000000" stroke="none">
<path d="M1917 3153 c-17 -16 -2 -59 78 -224 113 -235 127 -273 123 -328 -3
-38 -7 -48 -30 -59 -41 -19 -72 -1 -184 109 -108 106 -138 120 -168 78 -18
-27 -14 -54 31 -178 46 -129 44 -131 -95 -70 -49 22 -53 22 -69 6 -16 -15 -12
-26 60 -169 100 -197 101 -215 28 -327 -81 -123 -95 -166 -95 -296 0 -91 4
-119 22 -164 33 -77 84 -150 155 -222 l63 -62 -15 -72 c-17 -88 -9 -139 24
-161 18 -12 28 -13 44 -4 12 6 21 14 21 18 0 5 22 36 50 70 28 34 50 67 50 74
0 16 -54 -37 -97 -94 -52 -72 -73 -62 -73 32 0 27 5 70 11 97 l10 48 -79 82
c-57 58 -90 102 -116 155 -85 173 -68 308 64 518 58 92 54 122 -40 307 -41 79
-71 146 -67 149 3 4 25 -1 49 -11 90 -38 113 -43 130 -34 26 14 22 46 -17 155
-36 99 -42 138 -25 149 19 11 67 -24 134 -100 67 -74 125 -115 165 -115 35 0
69 22 82 53 21 49 -2 121 -110 346 -56 115 -101 211 -101 215 0 3 7 6 16 6 26
0 164 -142 369 -379 105 -121 196 -222 203 -225 20 -9 99 29 112 53 6 12 19
65 28 118 26 148 46 134 82 -59 21 -109 62 -264 95 -358 9 -25 38 -78 66 -118
59 -85 111 -195 129 -271 18 -77 8 -232 -19 -300 -25 -61 -67 -125 -112 -170
l-31 -31 -319 0 c-269 0 -319 2 -319 14 0 30 -51 76 -91 82 -37 6 -42 12 -105
115 -78 129 -121 179 -157 179 -39 0 -51 -50 -44 -174 11 -177 46 -266 139
-359 l48 -48 0 -302 c0 -294 1 -304 23 -347 16 -33 34 -51 67 -67 43 -22 52
-23 370 -23 314 0 327 1 348 20 12 12 22 27 22 35 0 7 10 17 23 21 33 10 57
35 56 58 -1 20 -2 20 -6 1 -11 -45 -10 -45 -332 -45 l-308 0 -22 23 c-22 24
-22 26 -21 383 1 197 -1 371 -5 387 l-7 27 327 0 c229 0 333 -3 348 -12 20
-10 21 -10 8 5 -11 15 -9 21 15 51 16 19 34 35 39 35 6 0 26 -25 45 -56 59
-94 119 -116 171 -64 26 27 29 36 29 99 0 103 -43 212 -115 292 -16 18 -24 43
-29 91 -12 124 -64 252 -153 377 -53 75 -98 209 -143 424 -30 148 -55 211 -83
216 -22 4 -42 -42 -52 -118 -12 -99 -23 -129 -55 -145 -16 -8 -36 -15 -44 -15
-7 0 -38 28 -68 63 -289 338 -394 452 -461 503 -58 43 -77 51 -90 37z m0
-1425 c17 -18 58 -78 91 -134 33 -55 94 -151 136 -212 82 -121 92 -156 56
-192 -11 -11 -30 -20 -43 -20 -67 0 -199 107 -247 199 -32 63 -50 162 -50 277
0 128 5 136 57 82z m1179 -50 c54 -61 94 -169 94 -253 0 -46 -4 -60 -25 -80
-13 -14 -32 -25 -41 -25 -22 0 -92 73 -118 122 l-20 36 32 69 c17 37 34 87 38
111 8 48 13 51 40 20z m-905 -237 c23 -24 29 -38 29 -73 -1 -40 -2 -42 -16
-23 -59 79 -84 115 -84 119 0 17 46 2 71 -23z m-56 -292 c17 -1 42 2 58 6 l27
7 0 -231 c0 -127 -4 -231 -9 -231 -5 0 -14 6 -20 14 -22 26 -68 29 -111 8
l-40 -19 0 243 0 243 33 -19 c18 -11 46 -20 62 -21z m42 -449 c24 -14 33 -28
38 -57 8 -53 26 -85 55 -100 18 -9 100 -13 298 -13 216 0 272 -3 272 -13 0
-35 -19 -37 -359 -37 -318 0 -338 1 -369 20 -44 27 -72 76 -72 125 1 81 68
118 137 75z"/>
<path d="M2263 1820 c-47 -19 -56 -78 -18 -115 31 -32 69 -32 102 1 20 20 24
31 19 57 -4 17 -12 37 -19 44 -17 17 -59 24 -84 13z"/>
<path d="M2783 1818 c-31 -15 -49 -62 -35 -94 11 -23 47 -44 78 -44 23 0 64
47 64 73 0 51 -61 88 -107 65z"/>
<path d="M2462 1468 c7 -20 94 -60 143 -65 62 -8 57 11 -8 26 -29 6 -67 20
-85 31 -37 23 -56 26 -50 8z"/>
<path d="M2314 1277 c-2 -7 -3 -62 -2 -123 l3 -109 123 -3 123 -3 -3 123 -3
123 -118 3 c-91 2 -119 0 -123 -11z m234 -97 c5 -136 10 -130 -112 -130 -59 0
-106 4 -108 10 -1 5 -2 55 0 110 l3 101 107 -3 107 -3 3 -85z"/>
<path d="M2923 1045 l1 -250 6 225 c3 124 2 236 -2 250 -3 14 -6 -87 -5 -225z"/>
<path d="M2620 1260 c0 -6 40 -10 99 -10 56 0 103 4 106 10 4 6 -32 10 -99 10
-64 0 -106 -4 -106 -10z"/>
<path d="M2620 1160 c0 -6 42 -10 105 -10 63 0 105 4 105 10 0 6 -42 10 -105
10 -63 0 -105 -4 -105 -10z"/>
<path d="M2620 1060 c0 -6 42 -10 105 -10 63 0 105 4 105 10 0 6 -42 10 -105
10 -63 0 -105 -4 -105 -10z"/>
<path d="M2330 960 c0 -6 90 -10 250 -10 160 0 250 4 250 10 0 6 -90 10 -250
10 -160 0 -250 -4 -250 -10z"/>
<path d="M2330 860 c0 -6 90 -10 251 -10 164 0 248 3 244 10 -4 6 -98 10 -251
10 -156 0 -244 -4 -244 -10z"/>
<path d="M2330 760 c0 -6 90 -10 251 -10 164 0 248 3 244 10 -4 6 -98 10 -251
10 -156 0 -244 -4 -244 -10z"/>
<path d="M2330 660 c0 -6 90 -10 251 -10 164 0 248 3 244 10 -4 6 -98 10 -251
10 -156 0 -244 -4 -244 -10z"/>
</g>
</svg>
